<?xml version="1.0" encoding="UTF-8"?><svg id="Capa_1" xmlns="http://www.w3.org/2000/svg" xmlns:xlink="http://www.w3.org/1999/xlink" viewBox="0 0 253.36 95.16"><defs><style>.cls-1{fill:#e97c2a;}.cls-2{stroke:#1a4164;stroke-width:5px;}.cls-2,.cls-3{fill:none;}.cls-4{clip-path:url(#clippath);}.cls-5{opacity:.15;}</style><clipPath id="clippath"><rect class="cls-3" x="506.07" y="-172.84" width="1143" height="1010"/></clipPath></defs><g id="Grupo_1270"><path id="Trazado_2538" d="m100.84,41.44h7.71v11.83h4.29v2.66h-12.03v-2.66h4.49v-9.17h-4.49v-2.66h.03Zm4.23-3.74c-.01-.46.16-.9.49-1.23.36-.34.85-.51,1.34-.49.5-.03,1,.14,1.37.49.65.69.65,1.77,0,2.46-.37.34-.87.52-1.37.49-.49.03-.98-.15-1.34-.49-.32-.33-.5-.77-.49-1.23h0Zm24.2,11.11c.01.99-.11,1.98-.37,2.94-.23.84-.59,1.63-1.09,2.34-.47.64-1.07,1.17-1.77,1.54-.75.38-1.59.56-2.43.54-.74.01-1.48-.13-2.17-.4-.62-.26-1.17-.65-1.63-1.14v6.86h-3.2v-20.06h2.94l.14,1.46c.46-.54,1.02-.97,1.66-1.29.7-.31,1.46-.47,2.23-.46.84-.02,1.68.16,2.43.54.7.37,1.32.88,1.8,1.51.51.7.88,1.5,1.09,2.34.26.98.39,1.99.37,3v.26Zm-3.2-.26c0-.62-.06-1.23-.2-1.83-.12-.54-.33-1.05-.63-1.51-.27-.42-.63-.77-1.06-1.03-.46-.26-.98-.39-1.51-.37-.62-.03-1.24.13-1.77.46-.46.31-.84.73-1.09,1.23v6.49c.26.49.63.91,1.09,1.23.54.33,1.17.49,1.8.46.53.01,1.06-.13,1.51-.4.43-.26.8-.62,1.06-1.06.3-.46.5-.98.6-1.51.14-.61.21-1.23.2-1.86v-.29h0Zm16.4,3.43c0-.23-.05-.45-.14-.66-.12-.22-.3-.41-.51-.54-.33-.2-.69-.35-1.06-.46-.55-.17-1.12-.32-1.69-.43-.78-.16-1.56-.37-2.31-.63-.63-.22-1.22-.52-1.77-.89-.46-.31-.86-.72-1.14-1.2-.27-.49-.41-1.04-.4-1.6,0-.59.15-1.17.43-1.69.28-.55.68-1.02,1.17-1.4.57-.43,1.21-.75,1.89-.94.8-.24,1.63-.35,2.46-.34.88-.02,1.76.11,2.6.37.7.21,1.36.54,1.94.97.5.39.91.89,1.2,1.46.28.56.43,1.17.43,1.8h-3.2c0-.29-.06-.57-.2-.83-.14-.28-.33-.52-.57-.71-.28-.23-.6-.39-.94-.49-.42-.12-.85-.18-1.29-.17-.42,0-.84.05-1.26.14-.31.09-.61.22-.89.4-.21.15-.38.35-.51.57-.11.21-.17.45-.17.69,0,.22.03.45.11.66.11.22.28.41.49.54.29.2.62.35.97.43.52.17,1.06.29,1.6.37.83.15,1.65.35,2.46.6.66.21,1.28.51,1.86.89.48.31.88.73,1.17,1.23.3.51.44,1.1.43,1.69,0,.62-.14,1.23-.43,1.77-.3.55-.73,1.02-1.26,1.37-.61.41-1.27.71-1.97.91-.84.23-1.7.33-2.57.31-.94.02-1.88-.13-2.77-.43-.74-.25-1.42-.63-2.03-1.11-.51-.42-.93-.95-1.23-1.54-.28-.55-.43-1.16-.43-1.77h3.11c.01.4.13.8.34,1.14.19.32.47.57.8.74.33.2.68.35,1.06.43.39.08.8.12,1.2.11.79.05,1.57-.13,2.26-.51.48-.23.78-.72.78-1.26h0Zm13.43-14.06v3.51h5.49v2.37h-5.49v6.94c-.02.46.05.91.2,1.34.12.32.3.61.54.86.23.22.52.38.83.46.34.08.68.12,1.03.11.29,0,.57-.03.86-.06.29-.02.57-.06.86-.11.26-.03.52-.08.77-.14.23-.06.43-.09.6-.14l.37,2.2c-.26.15-.54.28-.83.37-.35.12-.7.21-1.06.29-.37.09-.77.11-1.2.17-.43.03-.83.06-1.23.06-.68,0-1.35-.11-2-.31-.58-.19-1.11-.51-1.54-.94-.45-.47-.8-1.02-1.03-1.63-.27-.77-.4-1.58-.37-2.4v-7.06h-3.54v-2.37h3.54v-3.51h3.2Zm19.29,18c-.1-.2-.17-.41-.23-.63-.07-.25-.11-.51-.14-.77-.23.23-.48.45-.74.66-.29.2-.61.38-.94.51-.36.16-.73.28-1.11.37-.42.09-.85.14-1.29.14-.71,0-1.41-.1-2.09-.31-.59-.2-1.13-.51-1.6-.91-.42-.39-.77-.86-1.03-1.37-.24-.54-.37-1.12-.37-1.71-.07-1.41.59-2.76,1.74-3.57,1.49-.92,3.23-1.35,4.97-1.23h2.34v-.94c.03-.69-.25-1.37-.77-1.83-.62-.49-1.41-.74-2.2-.69-.38,0-.75.05-1.11.14-.29.1-.56.24-.8.43-.21.17-.38.38-.49.63-.11.24-.17.5-.17.77h-3.2c0-.57.14-1.12.4-1.63.28-.56.68-1.04,1.17-1.43.56-.44,1.18-.78,1.86-1,.81-.26,1.66-.39,2.51-.37.8,0,1.6.1,2.37.31.7.18,1.35.5,1.91.94.52.42.95.94,1.26,1.54.32.68.48,1.42.46,2.17v6.46c0,.58.05,1.17.14,1.74.08.47.21.93.4,1.37v.23h-3.26v-.03Zm-3.86-2.31c.39,0,.79-.05,1.17-.14.34-.09.66-.23.97-.4.28-.15.53-.34.74-.57.19-.2.36-.42.51-.66v-2.71h-2.03c-1-.08-2.01.14-2.89.63-.61.39-.97,1.08-.94,1.8,0,.28.05.56.14.83.09.26.25.48.46.66.23.19.49.33.77.43.35.1.72.15,1.09.14h0Zm17.4.03c.39,0,.78-.06,1.14-.2.35-.11.68-.28.97-.51.28-.22.51-.49.69-.8.18-.3.26-.65.23-1h3.03c0,.69-.16,1.37-.49,1.97-.33.61-.78,1.16-1.31,1.6-.58.47-1.24.84-1.94,1.09-.74.26-1.53.4-2.31.4-1.01.02-2.01-.18-2.94-.57-.81-.36-1.53-.9-2.11-1.57-.57-.68-1-1.47-1.26-2.31-.29-.9-.44-1.85-.43-2.8v-.49c0-.95.14-1.9.43-2.8.27-.84.69-1.63,1.26-2.31.58-.67,1.3-1.21,2.11-1.57.92-.41,1.91-.6,2.91-.57.83,0,1.65.13,2.43.4.71.23,1.36.61,1.91,1.11.54.47.97,1.06,1.26,1.71.31.69.45,1.44.43,2.2h-3.02c0-.38-.06-.76-.2-1.11-.15-.34-.36-.65-.63-.91-.29-.26-.62-.47-.97-.63-.39-.15-.81-.23-1.23-.23-.59-.01-1.17.12-1.69.4-.43.26-.8.62-1.06,1.06-.28.47-.47.98-.57,1.51-.11.56-.17,1.14-.17,1.71v.49c0,.58.05,1.15.17,1.71.11.53.3,1.04.57,1.51.25.44.62.8,1.06,1.06.52.32,1.13.48,1.74.46h0Zm15.06-4.06l-1.71,1.66v4.66h-3.2v-20.57h3.2v12.11l1.34-1.51,4.26-4.52h3.86l-5.6,6.03,6.46,8.46h-4l-4.6-6.31Z"/><path id="Trazado_2539" class="cls-1" d="m51.32,35.63l-8.69,3.23c2.36-5.84,6.97-10.49,12.8-12.89l-.77,5.43c-1.91.27-3.34,1.9-3.34,3.83-.01.13-.03.27,0,.4Zm5.49,15.37l-15.72-.89c.56,4.95,2.68,9.59,6.06,13.26.62-1.41,2.01-2.31,3.54-2.31.39,0,.77.06,1.14.17l5.69-9.09c-.31-.33-.55-.72-.71-1.14Zm1.2-4.54l-2.66-7.34h-.11c-1.04,0-2.04-.43-2.77-1.17l-10.83,4.03c-.44,1.81-.66,3.66-.66,5.52l15.74.89c.21-.76.66-1.43,1.28-1.92h0Zm2.34,6.92c-.17,0-.34-.03-.51-.03l-5.97,9.54c.43.64.66,1.4.66,2.17,0,1.15-.53,2.24-1.43,2.97,3.41,1.87,7.23,2.85,11.12,2.86.51,0,1.06-.03,1.57-.06l-5.43-17.46Zm11.66-24.6c-.01-1.03.4-2.02,1.14-2.74-2.82-1.18-5.86-1.78-8.92-1.77-2.05,0-4.1.27-6.09.8l-.97,6.89c.51.31.94.73,1.26,1.23l13.57-4.23v-.17Zm10.37,23.94c0,1.91-1.4,3.54-3.29,3.83l-2.86,10.97c6.56-3.94,10.76-10.85,11.26-18.49l-5.14,3.17c0,.2.03.34.03.51Zm-2.8-22.71c-.31.93-.96,1.71-1.83,2.17l1.83,16.8c.61.17,1.17.48,1.63.91l6.32-3.92c-.45-6.16-3.3-11.9-7.94-15.97h0Zm-2.6,19.11l-1.8-16.54c-.84-.16-1.6-.6-2.17-1.23l-14,4.37c-.11.94-.57,1.81-1.29,2.43l2.71,7.46c1.96.03,3.58,1.51,3.8,3.46l10.77,1.91c.41-.83,1.11-1.49,1.97-1.86h0Zm-2.26,4.46l-11.09-1.97c-.23.34-.51.65-.83.91l5.63,17.94c1.62-.29,3.2-.76,4.72-1.4l3.4-13.03c-.93-.52-1.6-1.41-1.83-2.46h0Zm-26,11.34c.79.71,1.63,1.36,2.51,1.94.81-.26,1.36-1.01,1.37-1.86,0-1.06-.85-1.93-1.91-1.94-.01,0-.02,0-.03,0-1.03.02-1.87.83-1.94,1.86h0Zm13.57-15.43c0-1.07-.87-1.94-1.94-1.94-1.07,0-1.94.87-1.94,1.94s.87,1.94,1.94,1.94h0c1.06,0,1.93-.85,1.94-1.91,0-.01,0-.02,0-.03Zm-7.11-16.17c-1.07,0-1.94.87-1.94,1.94,0,1.07.87,1.94,1.94,1.94s1.94-.87,1.94-1.94c0-1.06-.85-1.93-1.91-1.94-.01,0-.02,0-.03,0Zm23.32,21.34c1.07,0,1.94-.87,1.94-1.94s-.87-1.94-1.94-1.94-1.94.87-1.94,1.94h0c0,1.06.85,1.93,1.91,1.94.01,0,.02,0,.03,0Zm-.66-26.06c-.84-.6-1.72-1.15-2.63-1.63-1,.4-1.48,1.52-1.09,2.52.4,1,1.52,1.48,2.52,1.09.74-.29,1.22-1.01,1.22-1.81-.02-.05-.03-.11-.03-.17h0Z"/></g><g class="cls-4"><g id="Enmascarar_grupo_2"><g id="Grupo_1212"><g id="Elipse_196" class="cls-5"><ellipse class="cls-3" cx="363.57" cy="-282.84" rx="443.5" ry="445"/><ellipse class="cls-2" cx="363.57" cy="-282.84" rx="441" ry="442.5"/></g><g id="Elipse_214" class="cls-5"><ellipse class="cls-3" cx="782.07" cy="-43.34" rx="809" ry="810.5"/><ellipse class="cls-2" cx="782.07" cy="-43.34" rx="806.5" ry="808"/></g></g></g></g></svg>